<?xml version="1.0" encoding="utf-8"?>
<?xml-stylesheet type="text/xsl" href="rss1.xsl"?>
<rss version="2.0" xmlns:atom="http://www.w3.org/2005/Atom" xmlns:content="http://purl.org/rss/1.0/modules/content/" xmlns:dc="http://purl.org/dc/elements/1.1/" xmlns:media="http://search.yahoo.com/mrss/">
<channel>
 <title>Getty</title>
 <link>http://www.gettyimg.com/</link>
 <atom:link href="http://www.gettyimg.com/" rel="self" type="application/rss+xml" />

 
                <item>
                <title><![CDATA[【Music Videos】PACK - Jonas Brothers - JONAS [Music Videos]]]></title>
                <link><![CDATA[https://sharemania.us/threads/jonas-brothers-jonas-music-videos.240467/]]></link>
                <description><![CDATA[<article>
<blockquote class="messageText SelectQuoteContainer ugc baseHtml">
<div style="text-align: center">JONAS<br>
<div class="ToggleTriggerAnchor bbCodeSpoilerContainer">
<button type="button" class="button bbCodeSpoilerButton ToggleTrigger Tooltip JsOnly" data-target="> .SpoilerTarget"><span>Spoiler: <span class="SpoilerTitle">Songs Included</span></span></button>
<div class="SpoilerTarget bbCodeSpoilerText">Blue Danube (Rock Version)<br>
Give Love a Try (Joe Jonas Version)<br>
Give Love a Try (Nick Jonas Version)<br>
I Did It All Again<br>
Keep It Real<br>
Live to Party<br>
Lovesick<br>
Pizza Girl<br>
Scandinavia<br>
Time Is On Our Side<br>
We Got To Work It Out<br>
Why</div>
</div><br>
JONAS L.A.<br>
<div class="ToggleTriggerAnchor bbCodeSpoilerContainer">
<button type="button" class="button bbCodeSpoilerButton ToggleTrigger Tooltip JsOnly" data-target="> .SpoilerTarget"><span>Spoiler: <span class="SpoilerTitle">Videos Included</span></span></button>
<div class="SpoilerTarget bbCodeSpoilerText">Chillin' in the Summertime<br>
Critical<br>
Critical (Piano Version)<br>
Drive<br>
Fall<br>
Feelin' Alive<br>
Hey You<br>
Invisible<br>
L.A. Baby (Where Dreams Are Made Of)<br>
Live to Party<br>
Make It Right<br>
Set This Party Off<br>
Summer Rain<br>
Things Will Never Be the Same<br>
Your Biggest Fan</div>
</div>
<div class="ToggleTriggerAnchor bbCodeSpoilerContainer">
<button type="button" class="button bbCodeSpoilerButton ToggleTrigger Tooltip JsOnly" data-target="> .SpoilerTarget"><span>Spoiler: <span class="SpoilerTitle">Metadata</span></span></button>
<div class="SpoilerTarget bbCodeSpoilerText">Video<br>
ID : 1<br>
Format : AVC<br>
Format/Info : Advanced Video Codec<br>
Format profile : High@L4.0<br>
Format settings, CABAC : Yes<br>
Format settings, ReFrames : 4 frames<br>
Codec ID : avc1<br>
Codec ID/Info : Advanced Video Coding<br>
Duration : 1mn 26s<br>
Bit rate mode : Variable<br>
Bit rate : 9 625 Kbps<br>
Width : 1 920 pixels<br>
Height : 1 080 pixels<br>
Display aspect ratio : 16/9<br>
Frame rate mode : Variable<br>
Frame rate : 23.976 fps<br>
Minimum frame rate : 23.077 fps<br>
Maximum frame rate : 40.000 fps<br>
Resolution : 24 bits<br>
Colorimetry : 4:2:0<br>
Scan type : Progressive<br>
Bits/(Pixel*Frame) : 0.194<br>
Stream size : 99.7 MiB (97%)<br>
<br>
Audio<br>
ID : 3<br>
Format : AAC<br>
Format/Info : Advanced Audio Codec<br>
Format version : Version 4<br>
Format profile : LC<br>
Format settings, SBR : No<br>
Codec ID : 40<br>
Duration : 1mn 26s<br>
Bit rate mode : Constant<br>
Bit rate : 252 Kbps<br>
Nominal bit rate : 256 Kbps<br>
Channel(s) : 2 channels<br>
Channel positions : L R<br>
Sampling rate : 44.1 KHz<br>
Resolution : 16 bits<br>
Stream size : 2.59 MiB (3%)</div>
</div><br>
<div class="bbCodeBlock bbCodeVfcHH HiddenContent">
<div class="attribution type">Hidden Content:</div>
<blockquote>You must either reply or click 'Like' to see the hidden information contained here.</blockquote>
</div></div>
<div class="messageTextEndMarker">&nbsp;</div>
</blockquote>
</article>]]></description>
                <author><![CDATA[curtisrice04]]></author>
                </item>

                
                <item>
                <title><![CDATA[【Requests】[REQ VID] - Celine Dion: VIDEOGRAPHY Videos in .VOB (Untouched DVD Quality)]]></title>
                <link><![CDATA[https://sharemania.us/threads/celine-dion-videography-videos-in-vob-untouched-dvd-quality.240466/]]></link>
                <description><![CDATA[<article>
<blockquote class="messageText SelectQuoteContainer ugc baseHtml">
VIDEOGRAPHY <br>
Celine Don Music Videos in .VOB High Quality.
<div class="messageTextEndMarker">&nbsp;</div>
</blockquote>
</article>]]></description>
                <author><![CDATA[Tadeulife]]></author>
                </item>

                </channel></rss>